<?xml version="1.0" encoding="UTF-8" standalone="no"?>
<svg width="488px" height="464px" viewBox="0 0 488 464" version="1.1" xmlns="http://www.w3.org/2000/svg" xmlns:xlink="http://www.w3.org/1999/xlink" xmlns:sketch="http://www.bohemiancoding.com/sketch/ns">
    <!-- Generator: Sketch 3.4.3 (16044) - http://www.bohemiancoding.com/sketch -->
    <title>icon-mask</title>
    <desc>Created with Sketch.</desc>
    <defs></defs>
    <g id="Page-1" stroke="none" stroke-width="1" fill="none" fill-rule="evenodd" sketch:type="MSPage">
        <g id="icon-mask" sketch:type="MSArtboardGroup" fill="#000000">
            <g id="inputs" sketch:type="MSLayerGroup">
                <g id="Input" sketch:type="MSShapeGroup">
                    <path d="M22,19.996374 L22,19.996374 L22,130.003626 C22,128.891346 21.1086975,128 20.0016782,128 L467.998322,128 C466.897141,128 466,128.896977 466,130.003626 L466,19.996374 C466,21.1086542 466.891303,22 467.998322,22 L20.0016782,22 C21.1028586,22 22,21.1030226 22,19.996374 L22,19.996374 Z M0,19.996374 C0,8.9526816 8.95267025,0 20.0016782,0 L467.998322,0 C479.044944,0 488,8.96176644 488,19.996374 L488,130.003626 C488,141.047318 479.04733,150 467.998322,150 L20.0016782,150 C8.95505637,150 0,141.038234 0,130.003626 L0,19.996374 L0,19.996374 Z" id="Shape"></path>
                    <rect id="Text" x="57" y="57" width="224" height="37"></rect>
                </g>
                <g id="Input-Copy" transform="translate(0.000000, 182.000000)" sketch:type="MSShapeGroup">
                    <path d="M22,19.996374 L22,19.996374 L22,130.003626 C22,128.891346 21.1086975,128 20.0016782,128 L467.998322,128 C466.897141,128 466,128.896977 466,130.003626 L466,19.996374 C466,21.1086542 466.891303,22 467.998322,22 L20.0016782,22 C21.1028586,22 22,21.1030226 22,19.996374 L22,19.996374 Z M0,19.996374 C0,8.9526816 8.95267025,0 20.0016782,0 L467.998322,0 C479.044944,0 488,8.96176644 488,19.996374 L488,130.003626 C488,141.047318 479.04733,150 467.998322,150 L20.0016782,150 C8.95505637,150 0,141.038234 0,130.003626 L0,19.996374 L0,19.996374 Z" id="Shape"></path>
                    <rect id="Text" x="57" y="57" width="324" height="37"></rect>
                </g>
            </g>
            <g id="button" sketch:type="MSLayerGroup" transform="translate(94.000000, 364.000000)">
                <rect id="Rectangle-1-Copy-3" sketch:type="MSShapeGroup" x="0" y="0" width="300" height="100" rx="12"></rect>
            </g>
        </g>
    </g>
</svg>